<svg width="800" height="200" viewBox="0 0 800 200" fill="none" xmlns="http://www.w3.org/2000/svg">
<rect width="800" height="200" fill="#1E1E1E"/>
<rect width="800" height="200" fill="white"/>
<g filter="url(#filter0_d_0_1)">
<rect x="50" y="50" width="100" height="100" fill="#0D0317"/>
</g>
<g filter="url(#filter1_d_0_1)">
<rect x="200" y="50" width="100" height="100" fill="#FDFBFE"/>
</g>
<g filter="url(#filter2_d_0_1)">
<rect x="350" y="50" width="100" height="100" fill="#7F00FF"/>
</g>
<g filter="url(#filter3_d_0_1)">
<rect x="500" y="50" width="100" height="100" fill="#D9FD6D"/>
</g>
<g filter="url(#filter4_d_0_1)">
<rect x="650" y="50" width="100" height="100" fill="#E9914E"/>
</g>
<path d="M378.176 165L379.608 156.273H380.46L379.028 165H378.176ZM374.205 162.58L374.341 161.727H380.852L380.716 162.58H374.205ZM375.108 165L376.54 156.273H377.392L375.96 165H375.108ZM374.716 159.545L374.852 158.693H381.364L381.227 159.545H374.716ZM382.746 165L386.65 157.278V157.21H382.15V156.273H387.741V157.261L383.854 165H382.746ZM389.483 165V156.273H394.716V157.21H390.539V160.159H394.324V161.097H390.539V165H389.483ZM399.219 165.119C398.577 165.119 398.03 164.945 397.578 164.595C397.126 164.243 396.781 163.733 396.543 163.065C396.304 162.395 396.185 161.585 396.185 160.636C396.185 159.693 396.304 158.888 396.543 158.22C396.784 157.55 397.131 157.038 397.582 156.686C398.037 156.331 398.582 156.153 399.219 156.153C399.855 156.153 400.399 156.331 400.851 156.686C401.305 157.038 401.652 157.55 401.891 158.22C402.132 158.888 402.253 159.693 402.253 160.636C402.253 161.585 402.134 162.395 401.895 163.065C401.656 163.733 401.311 164.243 400.859 164.595C400.408 164.945 399.861 165.119 399.219 165.119ZM399.219 164.182C399.855 164.182 400.349 163.875 400.702 163.261C401.054 162.648 401.23 161.773 401.23 160.636C401.23 159.881 401.149 159.237 400.987 158.706C400.828 158.175 400.598 157.77 400.297 157.491C399.999 157.213 399.639 157.074 399.219 157.074C398.588 157.074 398.095 157.385 397.74 158.007C397.385 158.626 397.207 159.503 397.207 160.636C397.207 161.392 397.287 162.034 397.446 162.562C397.605 163.091 397.834 163.493 398.132 163.768C398.433 164.044 398.795 164.182 399.219 164.182ZM406.719 165.119C406.077 165.119 405.53 164.945 405.078 164.595C404.626 164.243 404.281 163.733 404.043 163.065C403.804 162.395 403.685 161.585 403.685 160.636C403.685 159.693 403.804 158.888 404.043 158.22C404.284 157.55 404.631 157.038 405.082 156.686C405.537 156.331 406.082 156.153 406.719 156.153C407.355 156.153 407.899 156.331 408.351 156.686C408.805 157.038 409.152 157.55 409.391 158.22C409.632 158.888 409.753 159.693 409.753 160.636C409.753 161.585 409.634 162.395 409.395 163.065C409.156 163.733 408.811 164.243 408.359 164.595C407.908 164.945 407.361 165.119 406.719 165.119ZM406.719 164.182C407.355 164.182 407.849 163.875 408.202 163.261C408.554 162.648 408.73 161.773 408.73 160.636C408.73 159.881 408.649 159.237 408.487 158.706C408.328 158.175 408.098 157.77 407.797 157.491C407.499 157.213 407.139 157.074 406.719 157.074C406.088 157.074 405.595 157.385 405.24 158.007C404.885 158.626 404.707 159.503 404.707 160.636C404.707 161.392 404.787 162.034 404.946 162.562C405.105 163.091 405.334 163.493 405.632 163.768C405.933 164.044 406.295 164.182 406.719 164.182ZM411.526 165V156.273H416.759V157.21H412.582V160.159H416.366V161.097H412.582V165H411.526ZM418.569 165V156.273H423.801V157.21H419.625V160.159H423.409V161.097H419.625V165H418.569Z" fill="black"/>
<path d="M529.176 165L530.608 156.273H531.46L530.028 165H529.176ZM525.205 162.58L525.341 161.727H531.852L531.716 162.58H525.205ZM526.108 165L527.54 156.273H528.392L526.96 165H526.108ZM525.716 159.545L525.852 158.693H532.364L532.227 159.545H525.716ZM536.32 165H533.627V156.273H536.44C537.286 156.273 538.011 156.447 538.613 156.797C539.215 157.143 539.677 157.642 539.998 158.293C540.319 158.94 540.479 159.716 540.479 160.619C540.479 161.528 540.317 162.311 539.994 162.967C539.67 163.621 539.198 164.124 538.579 164.476C537.96 164.825 537.207 165 536.32 165ZM534.684 164.062H536.252C536.974 164.062 537.572 163.923 538.046 163.645C538.521 163.366 538.874 162.97 539.107 162.456C539.34 161.942 539.457 161.33 539.457 160.619C539.457 159.915 539.342 159.308 539.112 158.8C538.881 158.288 538.538 157.896 538.08 157.624C537.623 157.348 537.053 157.21 536.371 157.21H534.684V164.062ZM544.877 156.153C545.235 156.156 545.593 156.224 545.951 156.358C546.309 156.491 546.636 156.713 546.931 157.023C547.227 157.33 547.464 157.749 547.643 158.28C547.822 158.811 547.911 159.477 547.911 160.278C547.911 161.054 547.837 161.743 547.69 162.345C547.545 162.945 547.335 163.45 547.059 163.862C546.786 164.274 546.454 164.587 546.062 164.8C545.673 165.013 545.232 165.119 544.741 165.119C544.252 165.119 543.816 165.023 543.433 164.83C543.052 164.634 542.739 164.362 542.495 164.016C542.254 163.666 542.099 163.261 542.031 162.801H543.07C543.164 163.202 543.35 163.533 543.629 163.794C543.91 164.053 544.281 164.182 544.741 164.182C545.414 164.182 545.945 163.888 546.335 163.3C546.727 162.712 546.923 161.881 546.923 160.807H546.854C546.695 161.045 546.506 161.251 546.288 161.425C546.069 161.598 545.826 161.732 545.559 161.825C545.292 161.919 545.008 161.966 544.707 161.966C544.207 161.966 543.748 161.842 543.33 161.595C542.915 161.345 542.583 161.003 542.333 160.568C542.086 160.131 541.962 159.631 541.962 159.068C541.962 158.534 542.082 158.045 542.32 157.602C542.562 157.156 542.9 156.801 543.335 156.537C543.772 156.273 544.286 156.145 544.877 156.153ZM544.877 157.091C544.519 157.091 544.197 157.18 543.91 157.359C543.626 157.536 543.4 157.774 543.232 158.075C543.067 158.374 542.985 158.705 542.985 159.068C542.985 159.432 543.065 159.763 543.224 160.061C543.386 160.357 543.606 160.592 543.884 160.768C544.165 160.942 544.485 161.028 544.843 161.028C545.113 161.028 545.364 160.976 545.597 160.871C545.83 160.763 546.033 160.616 546.207 160.432C546.383 160.244 546.521 160.033 546.62 159.797C546.719 159.558 546.769 159.31 546.769 159.051C546.769 158.71 546.687 158.391 546.522 158.092C546.36 157.794 546.136 157.553 545.849 157.368C545.565 157.183 545.241 157.091 544.877 157.091ZM549.74 165V156.273H554.973V157.21H550.797V160.159H554.581V161.097H550.797V165H549.74ZM559.477 165H556.783V156.273H559.596C560.442 156.273 561.167 156.447 561.769 156.797C562.371 157.143 562.833 157.642 563.154 158.293C563.475 158.94 563.636 159.716 563.636 160.619C563.636 161.528 563.474 162.311 563.15 162.967C562.826 163.621 562.354 164.124 561.735 164.476C561.116 164.825 560.363 165 559.477 165ZM557.84 164.062H559.408C560.13 164.062 560.728 163.923 561.202 163.645C561.677 163.366 562.031 162.97 562.263 162.456C562.496 161.942 562.613 161.33 562.613 160.619C562.613 159.915 562.498 159.308 562.268 158.8C562.038 158.288 561.694 157.896 561.237 157.624C560.779 157.348 560.21 157.21 559.528 157.21H557.84V164.062ZM568.153 165.119C567.795 165.114 567.437 165.045 567.079 164.915C566.721 164.784 566.394 164.564 566.099 164.254C565.803 163.942 565.566 163.52 565.387 162.989C565.208 162.455 565.119 161.784 565.119 160.977C565.119 160.205 565.191 159.52 565.336 158.923C565.481 158.324 565.691 157.82 565.967 157.411C566.242 156.999 566.575 156.686 566.964 156.473C567.356 156.26 567.798 156.153 568.289 156.153C568.778 156.153 569.212 156.251 569.593 156.447C569.977 156.641 570.289 156.911 570.531 157.257C570.772 157.604 570.928 158.003 570.999 158.455H569.96C569.863 158.062 569.675 157.737 569.397 157.479C569.119 157.22 568.749 157.091 568.289 157.091C567.613 157.091 567.08 157.385 566.691 157.973C566.305 158.561 566.11 159.386 566.107 160.449H566.175C566.335 160.207 566.523 160.001 566.742 159.831C566.964 159.658 567.208 159.524 567.475 159.43C567.742 159.337 568.025 159.29 568.323 159.29C568.823 159.29 569.281 159.415 569.695 159.665C570.11 159.912 570.442 160.254 570.692 160.692C570.942 161.126 571.067 161.625 571.067 162.188C571.067 162.727 570.947 163.222 570.705 163.67C570.464 164.116 570.124 164.472 569.687 164.736C569.252 164.997 568.741 165.125 568.153 165.119ZM568.153 164.182C568.511 164.182 568.832 164.092 569.116 163.913C569.403 163.734 569.629 163.494 569.793 163.193C569.961 162.892 570.045 162.557 570.045 162.188C570.045 161.827 569.964 161.499 569.802 161.203C569.643 160.905 569.423 160.668 569.141 160.491C568.863 160.315 568.545 160.227 568.187 160.227C567.917 160.227 567.665 160.281 567.433 160.389C567.2 160.494 566.995 160.639 566.819 160.824C566.646 161.009 566.509 161.22 566.41 161.459C566.31 161.695 566.261 161.943 566.261 162.205C566.261 162.551 566.342 162.875 566.504 163.176C566.668 163.477 566.893 163.72 567.177 163.905C567.464 164.089 567.789 164.182 568.153 164.182ZM575.59 165H572.897V156.273H575.709C576.556 156.273 577.28 156.447 577.882 156.797C578.485 157.143 578.946 157.642 579.267 158.293C579.588 158.94 579.749 159.716 579.749 160.619C579.749 161.528 579.587 162.311 579.263 162.967C578.939 163.621 578.468 164.124 577.848 164.476C577.229 164.825 576.476 165 575.59 165ZM573.953 164.062H575.522C576.243 164.062 576.841 163.923 577.316 163.645C577.79 163.366 578.144 162.97 578.377 162.456C578.61 161.942 578.726 161.33 578.726 160.619C578.726 159.915 578.611 159.308 578.381 158.8C578.151 158.288 577.807 157.896 577.35 157.624C576.892 157.348 576.323 157.21 575.641 157.21H573.953V164.062Z" fill="black"/>
<path d="M680.176 165L681.608 156.273H682.46L681.028 165H680.176ZM676.205 162.58L676.341 161.727H682.852L682.716 162.58H676.205ZM677.108 165L678.54 156.273H679.392L677.96 165H677.108ZM676.716 159.545L676.852 158.693H683.364L683.227 159.545H676.716ZM684.627 165V156.273H689.894V157.21H685.684V160.159H689.621V161.097H685.684V164.062H689.962V165H684.627ZM694.424 156.153C694.782 156.156 695.14 156.224 695.498 156.358C695.856 156.491 696.183 156.713 696.478 157.023C696.773 157.33 697.011 157.749 697.19 158.28C697.369 158.811 697.458 159.477 697.458 160.278C697.458 161.054 697.384 161.743 697.237 162.345C697.092 162.945 696.881 163.45 696.606 163.862C696.333 164.274 696.001 164.587 695.609 164.8C695.219 165.013 694.779 165.119 694.288 165.119C693.799 165.119 693.363 165.023 692.979 164.83C692.599 164.634 692.286 164.362 692.042 164.016C691.8 163.666 691.646 163.261 691.577 162.801H692.617C692.711 163.202 692.897 163.533 693.175 163.794C693.457 164.053 693.827 164.182 694.288 164.182C694.961 164.182 695.492 163.888 695.881 163.3C696.273 162.712 696.469 161.881 696.469 160.807H696.401C696.242 161.045 696.053 161.251 695.835 161.425C695.616 161.598 695.373 161.732 695.106 161.825C694.839 161.919 694.555 161.966 694.254 161.966C693.754 161.966 693.295 161.842 692.877 161.595C692.462 161.345 692.13 161.003 691.88 160.568C691.633 160.131 691.509 159.631 691.509 159.068C691.509 158.534 691.629 158.045 691.867 157.602C692.109 157.156 692.447 156.801 692.881 156.537C693.319 156.273 693.833 156.145 694.424 156.153ZM694.424 157.091C694.066 157.091 693.744 157.18 693.457 157.359C693.173 157.536 692.947 157.774 692.779 158.075C692.614 158.374 692.532 158.705 692.532 159.068C692.532 159.432 692.612 159.763 692.771 160.061C692.933 160.357 693.153 160.592 693.431 160.768C693.712 160.942 694.032 161.028 694.39 161.028C694.66 161.028 694.911 160.976 695.144 160.871C695.377 160.763 695.58 160.616 695.754 160.432C695.93 160.244 696.067 160.033 696.167 159.797C696.266 159.558 696.316 159.31 696.316 159.051C696.316 158.71 696.234 158.391 696.069 158.092C695.907 157.794 695.683 157.553 695.396 157.368C695.112 157.183 694.788 157.091 694.424 157.091ZM701.912 156.153C702.27 156.156 702.628 156.224 702.986 156.358C703.344 156.491 703.671 156.713 703.966 157.023C704.262 157.33 704.499 157.749 704.678 158.28C704.857 158.811 704.946 159.477 704.946 160.278C704.946 161.054 704.873 161.743 704.725 162.345C704.58 162.945 704.37 163.45 704.094 163.862C703.821 164.274 703.489 164.587 703.097 164.8C702.708 165.013 702.267 165.119 701.776 165.119C701.287 165.119 700.851 165.023 700.468 164.83C700.087 164.634 699.775 164.362 699.53 164.016C699.289 163.666 699.134 163.261 699.066 162.801H700.105C700.199 163.202 700.385 163.533 700.664 163.794C700.945 164.053 701.316 164.182 701.776 164.182C702.449 164.182 702.98 163.888 703.37 163.3C703.762 162.712 703.958 161.881 703.958 160.807H703.89C703.73 161.045 703.542 161.251 703.323 161.425C703.104 161.598 702.861 161.732 702.594 161.825C702.327 161.919 702.043 161.966 701.742 161.966C701.242 161.966 700.783 161.842 700.365 161.595C699.951 161.345 699.618 161.003 699.368 160.568C699.121 160.131 698.998 159.631 698.998 159.068C698.998 158.534 699.117 158.045 699.355 157.602C699.597 157.156 699.935 156.801 700.37 156.537C700.807 156.273 701.321 156.145 701.912 156.153ZM701.912 157.091C701.554 157.091 701.232 157.18 700.945 157.359C700.661 157.536 700.435 157.774 700.267 158.075C700.103 158.374 700.02 158.705 700.02 159.068C700.02 159.432 700.1 159.763 700.259 160.061C700.421 160.357 700.641 160.592 700.919 160.768C701.201 160.942 701.52 161.028 701.878 161.028C702.148 161.028 702.4 160.976 702.632 160.871C702.865 160.763 703.069 160.616 703.242 160.432C703.418 160.244 703.556 160.033 703.655 159.797C703.755 159.558 703.804 159.31 703.804 159.051C703.804 158.71 703.722 158.391 703.557 158.092C703.395 157.794 703.171 157.553 702.884 157.368C702.6 157.183 702.276 157.091 701.912 157.091ZM709.69 156.273V165H708.634V157.381H708.582L706.452 158.795V157.722L708.634 156.273H709.69ZM711.996 163.21V162.341L715.831 156.273H716.462V157.619H716.036L713.138 162.205V162.273H718.303V163.21H711.996ZM716.104 165V162.946V162.541V156.273H717.109V165H716.104ZM720.053 165V156.273H725.32V157.21H721.11V160.159H725.047V161.097H721.11V164.062H725.388V165H720.053Z" fill="black"/>
<path d="M230.176 168L231.608 159.273H232.46L231.028 168H230.176ZM226.205 165.58L226.341 164.727H232.852L232.716 165.58H226.205ZM227.108 168L228.54 159.273H229.392L227.96 168H227.108ZM226.716 162.545L226.852 161.693H233.364L233.227 162.545H226.716ZM234.627 168V159.273H239.86V160.21H235.684V163.159H239.468V164.097H235.684V168H234.627ZM244.363 168H241.67V159.273H244.483C245.329 159.273 246.054 159.447 246.656 159.797C247.258 160.143 247.72 160.642 248.041 161.293C248.362 161.94 248.522 162.716 248.522 163.619C248.522 164.528 248.36 165.311 248.037 165.967C247.713 166.621 247.241 167.124 246.622 167.476C246.002 167.825 245.25 168 244.363 168ZM242.727 167.062H244.295C245.017 167.062 245.615 166.923 246.089 166.645C246.564 166.366 246.917 165.97 247.15 165.456C247.383 164.942 247.5 164.33 247.5 163.619C247.5 162.915 247.385 162.308 247.154 161.8C246.924 161.288 246.581 160.896 246.123 160.624C245.666 160.348 245.096 160.21 244.414 160.21H242.727V167.062ZM250.295 168V159.273H255.528V160.21H251.352V163.159H255.136V164.097H251.352V168H250.295ZM257.338 168V159.273H260.389C260.997 159.273 261.499 159.378 261.893 159.588C262.288 159.795 262.582 160.075 262.776 160.428C262.969 160.777 263.065 161.165 263.065 161.591C263.065 161.966 262.999 162.276 262.865 162.52C262.734 162.764 262.561 162.957 262.345 163.099C262.132 163.241 261.901 163.347 261.651 163.415V163.5C261.918 163.517 262.186 163.611 262.456 163.781C262.726 163.952 262.952 164.196 263.134 164.514C263.315 164.832 263.406 165.222 263.406 165.682C263.406 166.119 263.307 166.513 263.108 166.862C262.909 167.212 262.595 167.489 262.166 167.693C261.737 167.898 261.179 168 260.491 168H257.338ZM258.395 167.062H260.491C261.182 167.062 261.672 166.929 261.962 166.662C262.254 166.392 262.401 166.065 262.401 165.682C262.401 165.386 262.325 165.114 262.175 164.864C262.024 164.611 261.81 164.409 261.531 164.259C261.253 164.105 260.923 164.028 260.543 164.028H258.395V167.062ZM258.395 163.108H260.355C260.673 163.108 260.96 163.045 261.216 162.92C261.474 162.795 261.679 162.619 261.83 162.392C261.983 162.165 262.06 161.898 262.06 161.591C262.06 161.207 261.926 160.882 261.659 160.615C261.392 160.345 260.969 160.21 260.389 160.21H258.395V163.108ZM265.143 168V159.273H270.376V160.21H266.2V163.159H269.984V164.097H266.2V168H265.143ZM272.186 168V159.273H277.453V160.21H273.243V163.159H277.18V164.097H273.243V167.062H277.521V168H272.186Z" fill="black"/>
<path d="M78.1761 168L79.608 159.273H80.4602L79.0284 168H78.1761ZM74.2045 165.58L74.3409 164.727H80.8523L80.7159 165.58H74.2045ZM75.108 168L76.5398 159.273H77.392L75.9602 168H75.108ZM74.7159 162.545L74.8523 161.693H81.3636L81.2273 162.545H74.7159ZM85.3203 168.119C84.6783 168.119 84.1314 167.945 83.6797 167.595C83.228 167.243 82.8828 166.733 82.6442 166.065C82.4055 165.395 82.2862 164.585 82.2862 163.636C82.2862 162.693 82.4055 161.888 82.6442 161.22C82.8857 160.55 83.2322 160.038 83.6839 159.686C84.1385 159.331 84.6839 159.153 85.3203 159.153C85.9567 159.153 86.5007 159.331 86.9524 159.686C87.407 160.038 87.7536 160.55 87.9922 161.22C88.2337 161.888 88.3544 162.693 88.3544 163.636C88.3544 164.585 88.2351 165.395 87.9964 166.065C87.7578 166.733 87.4126 167.243 86.9609 167.595C86.5092 167.945 85.9624 168.119 85.3203 168.119ZM85.3203 167.182C85.9567 167.182 86.451 166.875 86.8033 166.261C87.1555 165.648 87.3317 164.773 87.3317 163.636C87.3317 162.881 87.2507 162.237 87.0888 161.706C86.9297 161.175 86.6996 160.77 86.3984 160.491C86.1001 160.213 85.7408 160.074 85.3203 160.074C84.6896 160.074 84.1967 160.385 83.8416 161.007C83.4865 161.626 83.3089 162.503 83.3089 163.636C83.3089 164.392 83.3885 165.034 83.5476 165.562C83.7067 166.091 83.9354 166.493 84.2337 166.768C84.5348 167.044 84.897 167.182 85.3203 167.182ZM92.8203 168H90.1271V159.273H92.9396C93.7862 159.273 94.5107 159.447 95.1129 159.797C95.7152 160.143 96.1768 160.642 96.4979 161.293C96.8189 161.94 96.9794 162.716 96.9794 163.619C96.9794 164.528 96.8175 165.311 96.4936 165.967C96.1697 166.621 95.6982 167.124 95.0788 167.476C94.4595 167.825 93.7067 168 92.8203 168ZM91.1839 167.062H92.7521C93.4737 167.062 94.0717 166.923 94.5462 166.645C95.0206 166.366 95.3743 165.97 95.6072 165.456C95.8402 164.942 95.9567 164.33 95.9567 163.619C95.9567 162.915 95.8416 162.308 95.6115 161.8C95.3814 161.288 95.0376 160.896 94.5803 160.624C94.1229 160.348 93.5533 160.21 92.8714 160.21H91.1839V167.062ZM101.445 168.119C100.803 168.119 100.256 167.945 99.8047 167.595C99.353 167.243 99.0078 166.733 98.7692 166.065C98.5305 165.395 98.4112 164.585 98.4112 163.636C98.4112 162.693 98.5305 161.888 98.7692 161.22C99.0107 160.55 99.3572 160.038 99.8089 159.686C100.263 159.331 100.809 159.153 101.445 159.153C102.082 159.153 102.626 159.331 103.077 159.686C103.532 160.038 103.879 160.55 104.117 161.22C104.359 161.888 104.479 162.693 104.479 163.636C104.479 164.585 104.36 165.395 104.121 166.065C103.883 166.733 103.538 167.243 103.086 167.595C102.634 167.945 102.087 168.119 101.445 168.119ZM101.445 167.182C102.082 167.182 102.576 166.875 102.928 166.261C103.281 165.648 103.457 164.773 103.457 163.636C103.457 162.881 103.376 162.237 103.214 161.706C103.055 161.175 102.825 160.77 102.523 160.491C102.225 160.213 101.866 160.074 101.445 160.074C100.815 160.074 100.322 160.385 99.9666 161.007C99.6115 161.626 99.4339 162.503 99.4339 163.636C99.4339 164.392 99.5135 165.034 99.6726 165.562C99.8317 166.091 100.06 166.493 100.359 166.768C100.66 167.044 101.022 167.182 101.445 167.182ZM109.048 168.119C108.485 168.119 107.984 168.023 107.543 167.83C107.106 167.636 106.758 167.368 106.499 167.024C106.244 166.678 106.104 166.276 106.082 165.818H107.156C107.178 166.099 107.275 166.342 107.445 166.547C107.616 166.749 107.839 166.905 108.114 167.016C108.39 167.126 108.695 167.182 109.031 167.182C109.406 167.182 109.738 167.116 110.028 166.986C110.317 166.855 110.545 166.673 110.71 166.44C110.874 166.207 110.957 165.938 110.957 165.631C110.957 165.31 110.877 165.027 110.718 164.783C110.559 164.536 110.326 164.342 110.019 164.203C109.712 164.064 109.337 163.994 108.894 163.994H108.195V163.057H108.894C109.241 163.057 109.545 162.994 109.806 162.869C110.07 162.744 110.276 162.568 110.424 162.341C110.575 162.114 110.65 161.847 110.65 161.54C110.65 161.244 110.585 160.987 110.454 160.768C110.323 160.55 110.138 160.379 109.9 160.257C109.664 160.135 109.386 160.074 109.065 160.074C108.763 160.074 108.479 160.129 108.212 160.24C107.948 160.348 107.732 160.506 107.565 160.713C107.397 160.918 107.306 161.165 107.292 161.455H106.269C106.286 160.997 106.424 160.597 106.683 160.253C106.941 159.906 107.279 159.636 107.697 159.443C108.117 159.25 108.579 159.153 109.082 159.153C109.621 159.153 110.085 159.263 110.471 159.482C110.857 159.697 111.154 159.983 111.362 160.338C111.569 160.693 111.673 161.077 111.673 161.489C111.673 161.98 111.543 162.399 111.285 162.746C111.029 163.092 110.681 163.332 110.241 163.466V163.534C110.792 163.625 111.222 163.859 111.532 164.237C111.842 164.612 111.996 165.077 111.996 165.631C111.996 166.105 111.867 166.531 111.609 166.909C111.353 167.284 111.004 167.58 110.56 167.795C110.117 168.011 109.613 168.119 109.048 168.119ZM116.808 159.273V168H115.751V160.381H115.7L113.569 161.795V160.722L115.751 159.273H116.808ZM119.59 168L123.494 160.278V160.21H118.994V159.273H124.585V160.261L120.698 168H119.59Z" fill="black"/>
<defs>
<filter id="filter0_d_0_1" x="46" y="50" width="108" height="108" filterUnits="userSpaceOnUse" color-interpolation-filters="sRGB">
<feFlood flood-opacity="0" result="BackgroundImageFix"/>
<feColorMatrix in="SourceAlpha" type="matrix" values="0 0 0 0 0 0 0 0 0 0 0 0 0 0 0 0 0 0 127 0" result="hardAlpha"/>
<feOffset dy="4"/>
<feGaussianBlur stdDeviation="2"/>
<feComposite in2="hardAlpha" operator="out"/>
<feColorMatrix type="matrix" values="0 0 0 0 0 0 0 0 0 0 0 0 0 0 0 0 0 0 0.25 0"/>
<feBlend mode="normal" in2="BackgroundImageFix" result="effect1_dropShadow_0_1"/>
<feBlend mode="normal" in="SourceGraphic" in2="effect1_dropShadow_0_1" result="shape"/>
</filter>
<filter id="filter1_d_0_1" x="196" y="50" width="108" height="108" filterUnits="userSpaceOnUse" color-interpolation-filters="sRGB">
<feFlood flood-opacity="0" result="BackgroundImageFix"/>
<feColorMatrix in="SourceAlpha" type="matrix" values="0 0 0 0 0 0 0 0 0 0 0 0 0 0 0 0 0 0 127 0" result="hardAlpha"/>
<feOffset dy="4"/>
<feGaussianBlur stdDeviation="2"/>
<feComposite in2="hardAlpha" operator="out"/>
<feColorMatrix type="matrix" values="0 0 0 0 0 0 0 0 0 0 0 0 0 0 0 0 0 0 0.25 0"/>
<feBlend mode="normal" in2="BackgroundImageFix" result="effect1_dropShadow_0_1"/>
<feBlend mode="normal" in="SourceGraphic" in2="effect1_dropShadow_0_1" result="shape"/>
</filter>
<filter id="filter2_d_0_1" x="346" y="50" width="108" height="108" filterUnits="userSpaceOnUse" color-interpolation-filters="sRGB">
<feFlood flood-opacity="0" result="BackgroundImageFix"/>
<feColorMatrix in="SourceAlpha" type="matrix" values="0 0 0 0 0 0 0 0 0 0 0 0 0 0 0 0 0 0 127 0" result="hardAlpha"/>
<feOffset dy="4"/>
<feGaussianBlur stdDeviation="2"/>
<feComposite in2="hardAlpha" operator="out"/>
<feColorMatrix type="matrix" values="0 0 0 0 0 0 0 0 0 0 0 0 0 0 0 0 0 0 0.25 0"/>
<feBlend mode="normal" in2="BackgroundImageFix" result="effect1_dropShadow_0_1"/>
<feBlend mode="normal" in="SourceGraphic" in2="effect1_dropShadow_0_1" result="shape"/>
</filter>
<filter id="filter3_d_0_1" x="496" y="50" width="108" height="108" filterUnits="userSpaceOnUse" color-interpolation-filters="sRGB">
<feFlood flood-opacity="0" result="BackgroundImageFix"/>
<feColorMatrix in="SourceAlpha" type="matrix" values="0 0 0 0 0 0 0 0 0 0 0 0 0 0 0 0 0 0 127 0" result="hardAlpha"/>
<feOffset dy="4"/>
<feGaussianBlur stdDeviation="2"/>
<feComposite in2="hardAlpha" operator="out"/>
<feColorMatrix type="matrix" values="0 0 0 0 0 0 0 0 0 0 0 0 0 0 0 0 0 0 0.25 0"/>
<feBlend mode="normal" in2="BackgroundImageFix" result="effect1_dropShadow_0_1"/>
<feBlend mode="normal" in="SourceGraphic" in2="effect1_dropShadow_0_1" result="shape"/>
</filter>
<filter id="filter4_d_0_1" x="646" y="50" width="108" height="108" filterUnits="userSpaceOnUse" color-interpolation-filters="sRGB">
<feFlood flood-opacity="0" result="BackgroundImageFix"/>
<feColorMatrix in="SourceAlpha" type="matrix" values="0 0 0 0 0 0 0 0 0 0 0 0 0 0 0 0 0 0 127 0" result="hardAlpha"/>
<feOffset dy="4"/>
<feGaussianBlur stdDeviation="2"/>
<feComposite in2="hardAlpha" operator="out"/>
<feColorMatrix type="matrix" values="0 0 0 0 0 0 0 0 0 0 0 0 0 0 0 0 0 0 0.25 0"/>
<feBlend mode="normal" in2="BackgroundImageFix" result="effect1_dropShadow_0_1"/>
<feBlend mode="normal" in="SourceGraphic" in2="effect1_dropShadow_0_1" result="shape"/>
</filter>
</defs>
</svg>
