<svg width="800" height="200" viewBox="0 0 800 200" fill="none" xmlns="http://www.w3.org/2000/svg">
<g clip-path="url(#clip0_1_12)">
<rect width="800" height="200" fill="white"/>
<g filter="url(#filter0_d_1_12)">
<rect x="50" y="50" width="100" height="100" fill="#1A1A1A"/>
</g>
<g filter="url(#filter1_d_1_12)">
<rect x="200" y="50" width="100" height="100" fill="#F5F5F7"/>
</g>
<g filter="url(#filter2_d_1_12)">
<rect x="350" y="50" width="100" height="100" fill="#82B1FF"/>
</g>
<g filter="url(#filter3_d_1_12)">
<rect x="500" y="50" width="100" height="100" fill="#FF8C75"/>
</g>
<g filter="url(#filter4_d_1_12)">
<rect x="650" y="50" width="100" height="100" fill="#B4EC51"/>
</g>
<path d="M79.1761 169L80.608 160.273H81.4602L80.0284 169H79.1761ZM75.2045 166.58L75.3409 165.727H81.8523L81.7159 166.58H75.2045ZM76.108 169L77.5398 160.273H78.392L76.9602 169H76.108ZM75.7159 163.545L75.8523 162.693H82.3636L82.2273 163.545H75.7159ZM86.3203 169.119C85.6783 169.119 85.1314 168.945 84.6797 168.595C84.228 168.243 83.8828 167.733 83.6442 167.065C83.4055 166.395 83.2862 165.585 83.2862 164.636C83.2862 163.693 83.4055 162.888 83.6442 162.22C83.8857 161.55 84.2322 161.038 84.6839 160.686C85.1385 160.331 85.6839 160.153 86.3203 160.153C86.9567 160.153 87.5007 160.331 87.9524 160.686C88.407 161.038 88.7536 161.55 88.9922 162.22C89.2337 162.888 89.3544 163.693 89.3544 164.636C89.3544 165.585 89.2351 166.395 88.9964 167.065C88.7578 167.733 88.4126 168.243 87.9609 168.595C87.5092 168.945 86.9624 169.119 86.3203 169.119ZM86.3203 168.182C86.9567 168.182 87.451 167.875 87.8033 167.261C88.1555 166.648 88.3317 165.773 88.3317 164.636C88.3317 163.881 88.2507 163.237 88.0888 162.706C87.9297 162.175 87.6996 161.77 87.3984 161.491C87.1001 161.213 86.7408 161.074 86.3203 161.074C85.6896 161.074 85.1967 161.385 84.8416 162.007C84.4865 162.626 84.3089 163.503 84.3089 164.636C84.3089 165.392 84.3885 166.034 84.5476 166.562C84.7067 167.091 84.9354 167.493 85.2337 167.768C85.5348 168.044 85.897 168.182 86.3203 168.182ZM93.8203 169.119C93.1783 169.119 92.6314 168.945 92.1797 168.595C91.728 168.243 91.3828 167.733 91.1442 167.065C90.9055 166.395 90.7862 165.585 90.7862 164.636C90.7862 163.693 90.9055 162.888 91.1442 162.22C91.3857 161.55 91.7322 161.038 92.1839 160.686C92.6385 160.331 93.1839 160.153 93.8203 160.153C94.4567 160.153 95.0007 160.331 95.4524 160.686C95.907 161.038 96.2536 161.55 96.4922 162.22C96.7337 162.888 96.8544 163.693 96.8544 164.636C96.8544 165.585 96.7351 166.395 96.4964 167.065C96.2578 167.733 95.9126 168.243 95.4609 168.595C95.0092 168.945 94.4624 169.119 93.8203 169.119ZM93.8203 168.182C94.4567 168.182 94.951 167.875 95.3033 167.261C95.6555 166.648 95.8317 165.773 95.8317 164.636C95.8317 163.881 95.7507 163.237 95.5888 162.706C95.4297 162.175 95.1996 161.77 94.8984 161.491C94.6001 161.213 94.2408 161.074 93.8203 161.074C93.1896 161.074 92.6967 161.385 92.3416 162.007C91.9865 162.626 91.8089 163.503 91.8089 164.636C91.8089 165.392 91.8885 166.034 92.0476 166.562C92.2067 167.091 92.4354 167.493 92.7337 167.768C93.0348 168.044 93.397 168.182 93.8203 168.182ZM101.32 169.119C100.678 169.119 100.131 168.945 99.6797 168.595C99.228 168.243 98.8828 167.733 98.6442 167.065C98.4055 166.395 98.2862 165.585 98.2862 164.636C98.2862 163.693 98.4055 162.888 98.6442 162.22C98.8857 161.55 99.2322 161.038 99.6839 160.686C100.138 160.331 100.684 160.153 101.32 160.153C101.957 160.153 102.501 160.331 102.952 160.686C103.407 161.038 103.754 161.55 103.992 162.22C104.234 162.888 104.354 163.693 104.354 164.636C104.354 165.585 104.235 166.395 103.996 167.065C103.758 167.733 103.413 168.243 102.961 168.595C102.509 168.945 101.962 169.119 101.32 169.119ZM101.32 168.182C101.957 168.182 102.451 167.875 102.803 167.261C103.156 166.648 103.332 165.773 103.332 164.636C103.332 163.881 103.251 163.237 103.089 162.706C102.93 162.175 102.7 161.77 102.398 161.491C102.1 161.213 101.741 161.074 101.32 161.074C100.69 161.074 100.197 161.385 99.8416 162.007C99.4865 162.626 99.3089 163.503 99.3089 164.636C99.3089 165.392 99.3885 166.034 99.5476 166.562C99.7067 167.091 99.9354 167.493 100.234 167.768C100.535 168.044 100.897 168.182 101.32 168.182ZM108.82 169.119C108.178 169.119 107.631 168.945 107.18 168.595C106.728 168.243 106.383 167.733 106.144 167.065C105.906 166.395 105.786 165.585 105.786 164.636C105.786 163.693 105.906 162.888 106.144 162.22C106.386 161.55 106.732 161.038 107.184 160.686C107.638 160.331 108.184 160.153 108.82 160.153C109.457 160.153 110.001 160.331 110.452 160.686C110.907 161.038 111.254 161.55 111.492 162.22C111.734 162.888 111.854 163.693 111.854 164.636C111.854 165.585 111.735 166.395 111.496 167.065C111.258 167.733 110.913 168.243 110.461 168.595C110.009 168.945 109.462 169.119 108.82 169.119ZM108.82 168.182C109.457 168.182 109.951 167.875 110.303 167.261C110.656 166.648 110.832 165.773 110.832 164.636C110.832 163.881 110.751 163.237 110.589 162.706C110.43 162.175 110.2 161.77 109.898 161.491C109.6 161.213 109.241 161.074 108.82 161.074C108.19 161.074 107.697 161.385 107.342 162.007C106.987 162.626 106.809 163.503 106.809 164.636C106.809 165.392 106.888 166.034 107.048 166.562C107.207 167.091 107.435 167.493 107.734 167.768C108.035 168.044 108.397 168.182 108.82 168.182ZM116.32 169.119C115.678 169.119 115.131 168.945 114.68 168.595C114.228 168.243 113.883 167.733 113.644 167.065C113.406 166.395 113.286 165.585 113.286 164.636C113.286 163.693 113.406 162.888 113.644 162.22C113.886 161.55 114.232 161.038 114.684 160.686C115.138 160.331 115.684 160.153 116.32 160.153C116.957 160.153 117.501 160.331 117.952 160.686C118.407 161.038 118.754 161.55 118.992 162.22C119.234 162.888 119.354 163.693 119.354 164.636C119.354 165.585 119.235 166.395 118.996 167.065C118.758 167.733 118.413 168.243 117.961 168.595C117.509 168.945 116.962 169.119 116.32 169.119ZM116.32 168.182C116.957 168.182 117.451 167.875 117.803 167.261C118.156 166.648 118.332 165.773 118.332 164.636C118.332 163.881 118.251 163.237 118.089 162.706C117.93 162.175 117.7 161.77 117.398 161.491C117.1 161.213 116.741 161.074 116.32 161.074C115.69 161.074 115.197 161.385 114.842 162.007C114.487 162.626 114.309 163.503 114.309 164.636C114.309 165.392 114.388 166.034 114.548 166.562C114.707 167.091 114.935 167.493 115.234 167.768C115.535 168.044 115.897 168.182 116.32 168.182ZM123.82 169.119C123.178 169.119 122.631 168.945 122.18 168.595C121.728 168.243 121.383 167.733 121.144 167.065C120.906 166.395 120.786 165.585 120.786 164.636C120.786 163.693 120.906 162.888 121.144 162.22C121.386 161.55 121.732 161.038 122.184 160.686C122.638 160.331 123.184 160.153 123.82 160.153C124.457 160.153 125.001 160.331 125.452 160.686C125.907 161.038 126.254 161.55 126.492 162.22C126.734 162.888 126.854 163.693 126.854 164.636C126.854 165.585 126.735 166.395 126.496 167.065C126.258 167.733 125.913 168.243 125.461 168.595C125.009 168.945 124.462 169.119 123.82 169.119ZM123.82 168.182C124.457 168.182 124.951 167.875 125.303 167.261C125.656 166.648 125.832 165.773 125.832 164.636C125.832 163.881 125.751 163.237 125.589 162.706C125.43 162.175 125.2 161.77 124.898 161.491C124.6 161.213 124.241 161.074 123.82 161.074C123.19 161.074 122.697 161.385 122.342 162.007C121.987 162.626 121.809 163.503 121.809 164.636C121.809 165.392 121.888 166.034 122.048 166.562C122.207 167.091 122.435 167.493 122.734 167.768C123.035 168.044 123.397 168.182 123.82 168.182Z" fill="black"/>
<path d="M229.176 169L230.608 160.273H231.46L230.028 169H229.176ZM225.205 166.58L225.341 165.727H231.852L231.716 166.58H225.205ZM226.108 169L227.54 160.273H228.392L226.96 169H226.108ZM225.716 163.545L225.852 162.693H232.364L232.227 163.545H225.716ZM233.627 169V160.273H238.86V161.21H234.684V164.159H238.468V165.097H234.684V169H233.627ZM243.244 169.119C242.744 169.119 242.294 169.02 241.893 168.821C241.493 168.622 241.172 168.349 240.93 168.003C240.689 167.656 240.556 167.261 240.534 166.818H241.556C241.596 167.213 241.775 167.54 242.093 167.798C242.414 168.054 242.798 168.182 243.244 168.182C243.602 168.182 243.92 168.098 244.199 167.93C244.48 167.763 244.7 167.533 244.859 167.24C245.021 166.945 245.102 166.611 245.102 166.239C245.102 165.858 245.018 165.518 244.85 165.22C244.686 164.919 244.458 164.682 244.169 164.509C243.879 164.335 243.548 164.247 243.176 164.244C242.909 164.241 242.635 164.283 242.353 164.368C242.072 164.45 241.841 164.557 241.659 164.688L240.67 164.568L241.199 160.273H245.733V161.21H242.085L241.778 163.784H241.829C242.008 163.642 242.233 163.524 242.502 163.43C242.772 163.337 243.054 163.29 243.346 163.29C243.88 163.29 244.356 163.418 244.774 163.673C245.194 163.926 245.524 164.273 245.762 164.713C246.004 165.153 246.125 165.656 246.125 166.222C246.125 166.778 246 167.276 245.75 167.713C245.502 168.148 245.162 168.491 244.727 168.744C244.292 168.994 243.798 169.119 243.244 169.119ZM247.971 169V160.273H253.204V161.21H249.028V164.159H252.812V165.097H249.028V169H247.971ZM257.588 169.119C257.088 169.119 256.637 169.02 256.237 168.821C255.836 168.622 255.515 168.349 255.274 168.003C255.032 167.656 254.9 167.261 254.877 166.818H255.9C255.94 167.213 256.119 167.54 256.437 167.798C256.758 168.054 257.142 168.182 257.588 168.182C257.946 168.182 258.264 168.098 258.542 167.93C258.824 167.763 259.044 167.533 259.203 167.24C259.365 166.945 259.446 166.611 259.446 166.239C259.446 165.858 259.362 165.518 259.194 165.22C259.029 164.919 258.802 164.682 258.512 164.509C258.223 164.335 257.892 164.247 257.52 164.244C257.252 164.241 256.978 164.283 256.697 164.368C256.416 164.45 256.184 164.557 256.002 164.688L255.014 164.568L255.542 160.273H260.076V161.21H256.429L256.122 163.784H256.173C256.352 163.642 256.576 163.524 256.846 163.43C257.116 163.337 257.397 163.29 257.69 163.29C258.224 163.29 258.7 163.418 259.118 163.673C259.538 163.926 259.868 164.273 260.106 164.713C260.348 165.153 260.468 165.656 260.468 166.222C260.468 166.778 260.343 167.276 260.093 167.713C259.846 168.148 259.505 168.491 259.071 168.744C258.636 168.994 258.142 169.119 257.588 169.119ZM262.315 169V160.273H267.548V161.21H263.371V164.159H267.156V165.097H263.371V169H262.315ZM269.477 169L273.38 161.278V161.21H268.88V160.273H274.471V161.261L270.585 169H269.477Z" fill="black"/>
<path d="M378.176 169L379.608 160.273H380.46L379.028 169H378.176ZM374.205 166.58L374.341 165.727H380.852L380.716 166.58H374.205ZM375.108 169L376.54 160.273H377.392L375.96 169H375.108ZM374.716 163.545L374.852 162.693H381.364L381.227 163.545H374.716ZM385.269 169.119C384.684 169.119 384.167 169.016 383.718 168.808C383.272 168.598 382.924 168.31 382.674 167.943C382.424 167.574 382.3 167.153 382.303 166.682C382.3 166.312 382.373 165.972 382.521 165.659C382.668 165.344 382.87 165.081 383.126 164.871C383.384 164.658 383.673 164.523 383.991 164.466V164.415C383.573 164.307 383.241 164.072 382.994 163.712C382.746 163.348 382.624 162.935 382.627 162.472C382.624 162.028 382.737 161.632 382.964 161.283C383.191 160.933 383.504 160.658 383.901 160.456C384.302 160.254 384.758 160.153 385.269 160.153C385.775 160.153 386.227 160.254 386.624 160.456C387.022 160.658 387.335 160.933 387.562 161.283C387.792 161.632 387.908 162.028 387.911 162.472C387.908 162.935 387.782 163.348 387.532 163.712C387.285 164.072 386.957 164.307 386.548 164.415V164.466C386.863 164.523 387.147 164.658 387.4 164.871C387.653 165.081 387.854 165.344 388.005 165.659C388.156 165.972 388.232 166.312 388.235 166.682C388.232 167.153 388.104 167.574 387.852 167.943C387.602 168.31 387.254 168.598 386.808 168.808C386.364 169.016 385.852 169.119 385.269 169.119ZM385.269 168.182C385.664 168.182 386.005 168.118 386.292 167.99C386.579 167.862 386.8 167.682 386.957 167.449C387.113 167.216 387.192 166.943 387.195 166.631C387.192 166.301 387.107 166.01 386.94 165.757C386.772 165.504 386.543 165.305 386.254 165.161C385.967 165.016 385.638 164.943 385.269 164.943C384.897 164.943 384.565 165.016 384.272 165.161C383.982 165.305 383.754 165.504 383.586 165.757C383.421 166.01 383.34 166.301 383.343 166.631C383.34 166.943 383.415 167.216 383.569 167.449C383.725 167.682 383.948 167.862 384.238 167.99C384.528 168.118 384.871 168.182 385.269 168.182ZM385.269 164.04C385.582 164.04 385.859 163.977 386.1 163.852C386.344 163.727 386.536 163.553 386.675 163.328C386.815 163.104 386.886 162.841 386.888 162.54C386.886 162.244 386.816 161.987 386.68 161.768C386.543 161.547 386.354 161.376 386.113 161.257C385.871 161.135 385.59 161.074 385.269 161.074C384.942 161.074 384.657 161.135 384.413 161.257C384.168 161.376 383.979 161.547 383.846 161.768C383.712 161.987 383.647 162.244 383.65 162.54C383.647 162.841 383.714 163.104 383.85 163.328C383.989 163.553 384.181 163.727 384.425 163.852C384.67 163.977 384.951 164.04 385.269 164.04ZM389.868 169V168.233L392.749 165.08C393.087 164.71 393.365 164.389 393.584 164.116C393.803 163.841 393.965 163.582 394.07 163.341C394.178 163.097 394.232 162.841 394.232 162.574C394.232 162.267 394.158 162.001 394.01 161.777C393.865 161.553 393.667 161.379 393.414 161.257C393.161 161.135 392.877 161.074 392.561 161.074C392.226 161.074 391.934 161.143 391.684 161.283C391.436 161.419 391.245 161.611 391.108 161.858C390.975 162.105 390.908 162.395 390.908 162.727H389.902C389.902 162.216 390.02 161.767 390.256 161.381C390.492 160.994 390.813 160.693 391.219 160.477C391.628 160.261 392.087 160.153 392.596 160.153C393.107 160.153 393.56 160.261 393.955 160.477C394.35 160.693 394.659 160.984 394.884 161.351C395.108 161.717 395.221 162.125 395.221 162.574C395.221 162.895 395.162 163.209 395.046 163.516C394.932 163.82 394.733 164.159 394.449 164.534C394.168 164.906 393.777 165.361 393.277 165.898L391.317 167.994V168.062H395.374V169H389.868ZM397.287 169V160.273H400.338C400.946 160.273 401.448 160.378 401.843 160.588C402.238 160.795 402.532 161.075 402.725 161.428C402.918 161.777 403.015 162.165 403.015 162.591C403.015 162.966 402.948 163.276 402.814 163.52C402.684 163.764 402.51 163.957 402.294 164.099C402.081 164.241 401.85 164.347 401.6 164.415V164.5C401.867 164.517 402.135 164.611 402.405 164.781C402.675 164.952 402.901 165.196 403.083 165.514C403.265 165.832 403.355 166.222 403.355 166.682C403.355 167.119 403.256 167.513 403.057 167.862C402.858 168.212 402.544 168.489 402.115 168.693C401.686 168.898 401.128 169 400.441 169H397.287ZM398.344 168.062H400.441C401.131 168.062 401.621 167.929 401.911 167.662C402.203 167.392 402.35 167.065 402.35 166.682C402.35 166.386 402.275 166.114 402.124 165.864C401.973 165.611 401.759 165.409 401.48 165.259C401.202 165.105 400.873 165.028 400.492 165.028H398.344V168.062ZM398.344 164.108H400.304C400.623 164.108 400.909 164.045 401.165 163.92C401.424 163.795 401.628 163.619 401.779 163.392C401.932 163.165 402.009 162.898 402.009 162.591C402.009 162.207 401.875 161.882 401.608 161.615C401.341 161.345 400.918 161.21 400.338 161.21H398.344V164.108ZM408.007 160.273V169H406.95V161.381H406.899L404.768 162.795V161.722L406.95 160.273H408.007ZM410.67 169V160.273H415.903V161.21H411.727V164.159H415.511V165.097H411.727V169H410.67ZM417.713 169V160.273H422.946V161.21H418.77V164.159H422.554V165.097H418.77V169H417.713Z" fill="black"/>
<path d="M527.176 169L528.608 160.273H529.46L528.028 169H527.176ZM523.205 166.58L523.341 165.727H529.852L529.716 166.58H523.205ZM524.108 169L525.54 160.273H526.392L524.96 169H524.108ZM523.716 163.545L523.852 162.693H530.364L530.227 163.545H523.716ZM531.627 169V160.273H536.86V161.21H532.684V164.159H536.468V165.097H532.684V169H531.627ZM538.67 169V160.273H543.903V161.21H539.727V164.159H543.511V165.097H539.727V169H538.67ZM548.355 169.119C547.77 169.119 547.253 169.016 546.804 168.808C546.358 168.598 546.01 168.31 545.76 167.943C545.51 167.574 545.386 167.153 545.389 166.682C545.386 166.312 545.459 165.972 545.607 165.659C545.754 165.344 545.956 165.081 546.212 164.871C546.47 164.658 546.759 164.523 547.077 164.466V164.415C546.659 164.307 546.327 164.072 546.08 163.712C545.832 163.348 545.71 162.935 545.713 162.472C545.71 162.028 545.822 161.632 546.05 161.283C546.277 160.933 546.589 160.658 546.987 160.456C547.388 160.254 547.844 160.153 548.355 160.153C548.861 160.153 549.313 160.254 549.71 160.456C550.108 160.658 550.42 160.933 550.648 161.283C550.878 161.632 550.994 162.028 550.997 162.472C550.994 162.935 550.868 163.348 550.618 163.712C550.371 164.072 550.043 164.307 549.634 164.415V164.466C549.949 164.523 550.233 164.658 550.486 164.871C550.739 165.081 550.94 165.344 551.091 165.659C551.241 165.972 551.318 166.312 551.321 166.682C551.318 167.153 551.19 167.574 550.938 167.943C550.688 168.31 550.339 168.598 549.893 168.808C549.45 169.016 548.938 169.119 548.355 169.119ZM548.355 168.182C548.75 168.182 549.091 168.118 549.378 167.99C549.665 167.862 549.886 167.682 550.043 167.449C550.199 167.216 550.278 166.943 550.281 166.631C550.278 166.301 550.193 166.01 550.026 165.757C549.858 165.504 549.629 165.305 549.339 165.161C549.053 165.016 548.724 164.943 548.355 164.943C547.983 164.943 547.651 165.016 547.358 165.161C547.068 165.305 546.839 165.504 546.672 165.757C546.507 166.01 546.426 166.301 546.429 166.631C546.426 166.943 546.501 167.216 546.655 167.449C546.811 167.682 547.034 167.862 547.324 167.99C547.614 168.118 547.957 168.182 548.355 168.182ZM548.355 164.04C548.668 164.04 548.945 163.977 549.186 163.852C549.43 163.727 549.622 163.553 549.761 163.328C549.901 163.104 549.972 162.841 549.974 162.54C549.972 162.244 549.902 161.987 549.766 161.768C549.629 161.547 549.44 161.376 549.199 161.257C548.957 161.135 548.676 161.074 548.355 161.074C548.028 161.074 547.743 161.135 547.499 161.257C547.254 161.376 547.065 161.547 546.932 161.768C546.798 161.987 546.733 162.244 546.736 162.54C546.733 162.841 546.8 163.104 546.936 163.328C547.075 163.553 547.267 163.727 547.511 163.852C547.756 163.977 548.037 164.04 548.355 164.04ZM560.13 163H559.074C559.011 162.696 558.902 162.429 558.745 162.199C558.592 161.969 558.404 161.776 558.183 161.619C557.964 161.46 557.721 161.341 557.454 161.261C557.187 161.182 556.909 161.142 556.619 161.142C556.091 161.142 555.612 161.276 555.183 161.543C554.757 161.81 554.417 162.203 554.164 162.723C553.914 163.243 553.789 163.881 553.789 164.636C553.789 165.392 553.914 166.03 554.164 166.55C554.417 167.07 554.757 167.463 555.183 167.73C555.612 167.997 556.091 168.131 556.619 168.131C556.909 168.131 557.187 168.091 557.454 168.011C557.721 167.932 557.964 167.814 558.183 167.658C558.404 167.499 558.592 167.304 558.745 167.074C558.902 166.841 559.011 166.574 559.074 166.273H560.13C560.051 166.719 559.906 167.118 559.696 167.47C559.485 167.822 559.224 168.122 558.912 168.369C558.599 168.614 558.248 168.8 557.859 168.928C557.473 169.055 557.059 169.119 556.619 169.119C555.875 169.119 555.213 168.938 554.633 168.574C554.054 168.21 553.598 167.693 553.265 167.023C552.933 166.352 552.767 165.557 552.767 164.636C552.767 163.716 552.933 162.92 553.265 162.25C553.598 161.58 554.054 161.062 554.633 160.699C555.213 160.335 555.875 160.153 556.619 160.153C557.059 160.153 557.473 160.217 557.859 160.345C558.248 160.473 558.599 160.661 558.912 160.908C559.224 161.152 559.485 161.45 559.696 161.803C559.906 162.152 560.051 162.551 560.13 163ZM561.957 169L565.861 161.278V161.21H561.361V160.273H566.952V161.261L563.065 169H561.957ZM571.15 169.119C570.65 169.119 570.2 169.02 569.799 168.821C569.399 168.622 569.078 168.349 568.836 168.003C568.595 167.656 568.463 167.261 568.44 166.818H569.463C569.502 167.213 569.681 167.54 570 167.798C570.321 168.054 570.704 168.182 571.15 168.182C571.508 168.182 571.826 168.098 572.105 167.93C572.386 167.763 572.606 167.533 572.765 167.24C572.927 166.945 573.008 166.611 573.008 166.239C573.008 165.858 572.924 165.518 572.757 165.22C572.592 164.919 572.365 164.682 572.075 164.509C571.785 164.335 571.454 164.247 571.082 164.244C570.815 164.241 570.541 164.283 570.26 164.368C569.978 164.45 569.747 164.557 569.565 164.688L568.576 164.568L569.105 160.273H573.639V161.21H569.991L569.684 163.784H569.735C569.914 163.642 570.139 163.524 570.409 163.43C570.679 163.337 570.96 163.29 571.252 163.29C571.787 163.29 572.262 163.418 572.68 163.673C573.1 163.926 573.43 164.273 573.669 164.713C573.91 165.153 574.031 165.656 574.031 166.222C574.031 166.778 573.906 167.276 573.656 167.713C573.409 168.148 573.068 168.491 572.633 168.744C572.199 168.994 571.704 169.119 571.15 169.119Z" fill="black"/>
<path d="M676.176 169L677.608 160.273H678.46L677.028 169H676.176ZM672.205 166.58L672.341 165.727H678.852L678.716 166.58H672.205ZM673.108 169L674.54 160.273H675.392L673.96 169H673.108ZM672.716 163.545L672.852 162.693H679.364L679.227 163.545H672.716ZM680.627 169V160.273H683.678C684.286 160.273 684.788 160.378 685.183 160.588C685.577 160.795 685.871 161.075 686.065 161.428C686.258 161.777 686.354 162.165 686.354 162.591C686.354 162.966 686.288 163.276 686.154 163.52C686.023 163.764 685.85 163.957 685.634 164.099C685.421 164.241 685.19 164.347 684.94 164.415V164.5C685.207 164.517 685.475 164.611 685.745 164.781C686.015 164.952 686.241 165.196 686.423 165.514C686.604 165.832 686.695 166.222 686.695 166.682C686.695 167.119 686.596 167.513 686.397 167.862C686.198 168.212 685.884 168.489 685.455 168.693C685.026 168.898 684.468 169 683.781 169H680.627ZM681.684 168.062H683.781C684.471 168.062 684.961 167.929 685.251 167.662C685.543 167.392 685.69 167.065 685.69 166.682C685.69 166.386 685.614 166.114 685.464 165.864C685.313 165.611 685.099 165.409 684.82 165.259C684.542 165.105 684.212 165.028 683.832 165.028H681.684V168.062ZM681.684 164.108H683.644C683.962 164.108 684.249 164.045 684.505 163.92C684.763 163.795 684.968 163.619 685.119 163.392C685.272 163.165 685.349 162.898 685.349 162.591C685.349 162.207 685.215 161.882 684.948 161.615C684.681 161.345 684.258 161.21 683.678 161.21H681.684V164.108ZM688.074 167.21V166.341L691.909 160.273H692.54V161.619H692.114L689.216 166.205V166.273H694.381V167.21H688.074ZM692.182 169V166.946V166.541V160.273H693.188V169H692.182ZM696.131 169V160.273H701.398V161.21H697.188V164.159H701.125V165.097H697.188V168.062H701.466V169H696.131ZM710.326 163H709.269C709.206 162.696 709.097 162.429 708.941 162.199C708.787 161.969 708.6 161.776 708.378 161.619C708.159 161.46 707.917 161.341 707.65 161.261C707.382 161.182 707.104 161.142 706.814 161.142C706.286 161.142 705.807 161.276 705.378 161.543C704.952 161.81 704.613 162.203 704.36 162.723C704.11 163.243 703.985 163.881 703.985 164.636C703.985 165.392 704.11 166.03 704.36 166.55C704.613 167.07 704.952 167.463 705.378 167.73C705.807 167.997 706.286 168.131 706.814 168.131C707.104 168.131 707.382 168.091 707.65 168.011C707.917 167.932 708.159 167.814 708.378 167.658C708.6 167.499 708.787 167.304 708.941 167.074C709.097 166.841 709.206 166.574 709.269 166.273H710.326C710.246 166.719 710.101 167.118 709.891 167.47C709.681 167.822 709.419 168.122 709.107 168.369C708.794 168.614 708.444 168.8 708.054 168.928C707.668 169.055 707.255 169.119 706.814 169.119C706.07 169.119 705.408 168.938 704.828 168.574C704.249 168.21 703.793 167.693 703.461 167.023C703.128 166.352 702.962 165.557 702.962 164.636C702.962 163.716 703.128 162.92 703.461 162.25C703.793 161.58 704.249 161.062 704.828 160.699C705.408 160.335 706.07 160.153 706.814 160.153C707.255 160.153 707.668 160.217 708.054 160.345C708.444 160.473 708.794 160.661 709.107 160.908C709.419 161.152 709.681 161.45 709.891 161.803C710.101 162.152 710.246 162.551 710.326 163ZM714.607 169.119C714.107 169.119 713.657 169.02 713.256 168.821C712.856 168.622 712.535 168.349 712.293 168.003C712.052 167.656 711.92 167.261 711.897 166.818H712.92C712.96 167.213 713.138 167.54 713.457 167.798C713.778 168.054 714.161 168.182 714.607 168.182C714.965 168.182 715.283 168.098 715.562 167.93C715.843 167.763 716.063 167.533 716.222 167.24C716.384 166.945 716.465 166.611 716.465 166.239C716.465 165.858 716.381 165.518 716.214 165.22C716.049 164.919 715.822 164.682 715.532 164.509C715.242 164.335 714.911 164.247 714.539 164.244C714.272 164.241 713.998 164.283 713.717 164.368C713.435 164.45 713.204 164.557 713.022 164.688L712.033 164.568L712.562 160.273H717.096V161.21H713.448L713.141 163.784H713.192C713.371 163.642 713.596 163.524 713.866 163.43C714.136 163.337 714.417 163.29 714.71 163.29C715.244 163.29 715.719 163.418 716.137 163.673C716.558 163.926 716.887 164.273 717.126 164.713C717.367 165.153 717.488 165.656 717.488 166.222C717.488 166.778 717.363 167.276 717.113 167.713C716.866 168.148 716.525 168.491 716.09 168.744C715.656 168.994 715.161 169.119 714.607 169.119ZM722.249 160.273V169H721.192V161.381H721.141L719.01 162.795V161.722L721.192 160.273H722.249Z" fill="black"/>
</g>
<defs>
<filter id="filter0_d_1_12" x="46" y="50" width="108" height="108" filterUnits="userSpaceOnUse" color-interpolation-filters="sRGB">
<feFlood flood-opacity="0" result="BackgroundImageFix"/>
<feColorMatrix in="SourceAlpha" type="matrix" values="0 0 0 0 0 0 0 0 0 0 0 0 0 0 0 0 0 0 127 0" result="hardAlpha"/>
<feOffset dy="4"/>
<feGaussianBlur stdDeviation="2"/>
<feComposite in2="hardAlpha" operator="out"/>
<feColorMatrix type="matrix" values="0 0 0 0 0 0 0 0 0 0 0 0 0 0 0 0 0 0 0.25 0"/>
<feBlend mode="normal" in2="BackgroundImageFix" result="effect1_dropShadow_1_12"/>
<feBlend mode="normal" in="SourceGraphic" in2="effect1_dropShadow_1_12" result="shape"/>
</filter>
<filter id="filter1_d_1_12" x="196" y="50" width="108" height="108" filterUnits="userSpaceOnUse" color-interpolation-filters="sRGB">
<feFlood flood-opacity="0" result="BackgroundImageFix"/>
<feColorMatrix in="SourceAlpha" type="matrix" values="0 0 0 0 0 0 0 0 0 0 0 0 0 0 0 0 0 0 127 0" result="hardAlpha"/>
<feOffset dy="4"/>
<feGaussianBlur stdDeviation="2"/>
<feComposite in2="hardAlpha" operator="out"/>
<feColorMatrix type="matrix" values="0 0 0 0 0 0 0 0 0 0 0 0 0 0 0 0 0 0 0.25 0"/>
<feBlend mode="normal" in2="BackgroundImageFix" result="effect1_dropShadow_1_12"/>
<feBlend mode="normal" in="SourceGraphic" in2="effect1_dropShadow_1_12" result="shape"/>
</filter>
<filter id="filter2_d_1_12" x="346" y="50" width="108" height="108" filterUnits="userSpaceOnUse" color-interpolation-filters="sRGB">
<feFlood flood-opacity="0" result="BackgroundImageFix"/>
<feColorMatrix in="SourceAlpha" type="matrix" values="0 0 0 0 0 0 0 0 0 0 0 0 0 0 0 0 0 0 127 0" result="hardAlpha"/>
<feOffset dy="4"/>
<feGaussianBlur stdDeviation="2"/>
<feComposite in2="hardAlpha" operator="out"/>
<feColorMatrix type="matrix" values="0 0 0 0 0 0 0 0 0 0 0 0 0 0 0 0 0 0 0.25 0"/>
<feBlend mode="normal" in2="BackgroundImageFix" result="effect1_dropShadow_1_12"/>
<feBlend mode="normal" in="SourceGraphic" in2="effect1_dropShadow_1_12" result="shape"/>
</filter>
<filter id="filter3_d_1_12" x="496" y="50" width="108" height="108" filterUnits="userSpaceOnUse" color-interpolation-filters="sRGB">
<feFlood flood-opacity="0" result="BackgroundImageFix"/>
<feColorMatrix in="SourceAlpha" type="matrix" values="0 0 0 0 0 0 0 0 0 0 0 0 0 0 0 0 0 0 127 0" result="hardAlpha"/>
<feOffset dy="4"/>
<feGaussianBlur stdDeviation="2"/>
<feComposite in2="hardAlpha" operator="out"/>
<feColorMatrix type="matrix" values="0 0 0 0 0 0 0 0 0 0 0 0 0 0 0 0 0 0 0.25 0"/>
<feBlend mode="normal" in2="BackgroundImageFix" result="effect1_dropShadow_1_12"/>
<feBlend mode="normal" in="SourceGraphic" in2="effect1_dropShadow_1_12" result="shape"/>
</filter>
<filter id="filter4_d_1_12" x="646" y="50" width="108" height="108" filterUnits="userSpaceOnUse" color-interpolation-filters="sRGB">
<feFlood flood-opacity="0" result="BackgroundImageFix"/>
<feColorMatrix in="SourceAlpha" type="matrix" values="0 0 0 0 0 0 0 0 0 0 0 0 0 0 0 0 0 0 127 0" result="hardAlpha"/>
<feOffset dy="4"/>
<feGaussianBlur stdDeviation="2"/>
<feComposite in2="hardAlpha" operator="out"/>
<feColorMatrix type="matrix" values="0 0 0 0 0 0 0 0 0 0 0 0 0 0 0 0 0 0 0.25 0"/>
<feBlend mode="normal" in2="BackgroundImageFix" result="effect1_dropShadow_1_12"/>
<feBlend mode="normal" in="SourceGraphic" in2="effect1_dropShadow_1_12" result="shape"/>
</filter>
<clipPath id="clip0_1_12">
<rect width="800" height="200" fill="white"/>
</clipPath>
</defs>
</svg>
